<svg viewBox="0 0 338 338" xmlns="http://www.w3.org/2000/svg" stroke-width="5"><path d="M71.793 23.863c-.453 9.677-14.159 44.14-29.191 53.684s-28.328 44.275-22.795 67.249c5.531 22.972 24.568 76.472 60.261 104.475s74.031 48.344 112.51 54.113 84.757 1.374 104.263-10.529 27.773-16.477 29.176-26.708-5.07-17.391-6.858-19.145c-1.788-1.754-41.498-8.325-121.38-27.051-79.881-18.725-98.612-82.584-106.544-100.084-7.932-17.5-13.002-34.892-18.063-37.023-5.062-2.133 10.987-33.893 18.81-42.278 7.821-8.386 6.926-20.264-1.956-19.465s-18.004-2.077-18.23 2.762z" fill="#f6bf39" stroke="#482816"/><path d="M71.614 26.087c-.295 9.032-16.639 43.854-26.48 50.996s16.806-4.228 23.365 2.184c6.558 6.41 2.477 2.606 3.795-3.338s15.432-30.646 19.343-34.84c7.822-8.384 5.828-19.07-3.054-18.27-8.883.8-16.674-5.765-16.969 3.268z" fill="#e2a738"/><path d="M70.025 86.963c13.606 32.291 13.135 96.41 48.83 124.414 35.689 28 61.392 36.72 99.87 42.486s78.406 7.208 101.697 5.714c1.821-8.1-2.578-7.292-4.36-9.046s-41.499-8.325-121.38-27.05C114.8 204.756 96.07 140.897 88.142 123.396c-7.932-17.5-13.003-34.892-18.064-37.023l-.046.591z" fill="#FFF093"/><path d="M82.246 21.39c8.626.33 15.25-1.239 15.67 7.586.427 8.824-3.14 7.968-3.054 7.812-.086.156-3.05-2.075-2.964-2.23-.087.155-4.117 8.132-7.915 4.473-3.8-3.66-1.818-11.207-1.732-11.363-.085.156-8.299.098-6.966-3.748s-1.67-2.858 6.956-2.53zM319.95 248.824c-1.2 5.376 1.338 18.586 3.603 21.605s2.436-7.266 2.34-7.661c.095.396-2.06-9.868-2.153-10.263" fill="#7B572D"/><path d="M71.793 23.863c-.453 9.677-14.159 44.14-29.191 53.684s-28.328 44.275-22.795 67.249c5.531 22.972 24.568 76.472 60.261 104.475s74.031 48.344 112.51 54.113 84.757 1.374 104.263-10.529 27.773-16.477 29.176-26.708-5.07-17.391-6.858-19.145c-1.788-1.754-41.498-8.325-121.38-27.051-79.881-18.725-98.612-82.584-106.544-100.084-7.932-17.5-13.002-34.892-18.063-37.023-5.062-2.133 10.987-33.893 18.81-42.278 7.821-8.386 6.926-20.264-1.956-19.465s-18.004-2.077-18.23 2.762z" fill="none" stroke="#482816"/></svg>